<?xml version="1.0" encoding="UTF-8" standalone="no"?>
<svg
   xmlns:dc="http://purl.org/dc/elements/1.1/"
   xmlns:cc="http://creativecommons.org/ns#"
   xmlns:rdf="http://www.w3.org/1999/02/22-rdf-syntax-ns#"
   xmlns:svg="http://www.w3.org/2000/svg"
   xmlns="http://www.w3.org/2000/svg"
   xmlns:xlink="http://www.w3.org/1999/xlink"
   xmlns:sodipodi="http://sodipodi.sourceforge.net/DTD/sodipodi-0.dtd"
   xmlns:inkscape="http://www.inkscape.org/namespaces/inkscape"
   version="1.1"
   x="0px"
   y="0px"
   width="207.99725"
   height="208.09399"
   viewBox="0 0 207.99725 208.09399"
   id="svg2"
   inkscape:version="0.48.2 r9819"
   sodipodi:docname="newReleases.svg">
  <metadata
     id="metadata342">
    <rdf:RDF>
      <cc:Work
         rdf:about="">
        <dc:format>image/svg+xml</dc:format>
        <dc:type
           rdf:resource="http://purl.org/dc/dcmitype/StillImage" />
      </cc:Work>
    </rdf:RDF>
  </metadata>
  <defs
     id="defs340">
    <radialGradient
       gradientUnits="userSpaceOnUse"
       gradientTransform="matrix(0.7071,0.7071,0.7071,-0.7071,-605.1016,-430.1001)"
       r="98.153"
       cy="311.59671"
       cx="953.8623"
       id="SVGID_5_">
      <stop
         id="stop183"
         stop-color="#000"
         offset="0.55" />
      <stop
         id="stop185"
         stop-opacity="0"
         stop-color="#000"
         offset="1" />
    </radialGradient>
    <radialGradient
       gradientUnits="userSpaceOnUse"
       gradientTransform="matrix(0.7071,0.7071,-0.7071,0.7071,-458.1988,-577.002)"
       r="98.153397"
       cy="137.3213"
       cx="953.86328"
       id="SVGID_6_">
      <stop
         id="stop190"
         stop-color="#000"
         offset="0.55" />
      <stop
         id="stop192"
         stop-opacity="0"
         stop-color="#000"
         offset="1" />
    </radialGradient>
    <linearGradient
       gradientTransform="matrix(1,0,0,-1,-55.96,-6.6602)"
       y2="-92.744301"
       x2="285.01019"
       y1="-140.8457"
       x1="236.90919"
       gradientUnits="userSpaceOnUse"
       id="SVGID_7_">
      <stop
         id="stop207"
         stop-opacity="0"
         stop-color="#231F20"
         offset="0" />
      <stop
         id="stop209"
         stop-opacity="0.25"
         stop-color="#FFF"
         offset="0.5" />
      <stop
         id="stop211"
         stop-opacity="0"
         stop-color="#231F20"
         offset="1" />
    </linearGradient>
    <radialGradient
       gradientUnits="userSpaceOnUse"
       r="37.792999"
       cy="110.1318"
       cx="205"
       id="SVGID_8_">
      <stop
         id="stop216"
         stop-color="#29ABE2"
         offset="0"
         style="stop-color:#07ef31;stop-opacity:1;" />
      <stop
         id="stop218"
         stop-color="#0071BC"
         offset="1"
         style="stop-color:#0d8022;stop-opacity:1;" />
    </radialGradient>
    <radialGradient
       inkscape:collect="always"
       xlink:href="#SVGID_8_"
       id="radialGradient3391"
       gradientUnits="userSpaceOnUse"
       cx="205"
       cy="110.1318"
       r="37.792999"
       gradientTransform="translate(-100.47575,-5.821)" />
    <linearGradient
       inkscape:collect="always"
       xlink:href="#SVGID_7_"
       id="linearGradient3394"
       gradientUnits="userSpaceOnUse"
       gradientTransform="matrix(1,0,0,-1,-156.43575,-12.4812)"
       x1="236.90919"
       y1="-140.8457"
       x2="285.01019"
       y2="-92.744301" />
    <radialGradient
       inkscape:collect="always"
       xlink:href="#SVGID_6_"
       id="radialGradient3402"
       gradientUnits="userSpaceOnUse"
       gradientTransform="matrix(0.7071,0.7071,-0.7071,0.7071,-558.67455,-582.823)"
       cx="953.86328"
       cy="137.3213"
       r="98.153397" />
    <radialGradient
       inkscape:collect="always"
       xlink:href="#SVGID_5_"
       id="radialGradient3405"
       gradientUnits="userSpaceOnUse"
       gradientTransform="matrix(0.7071,0.7071,0.7071,-0.7071,-705.57735,-435.9211)"
       cx="953.8623"
       cy="311.59671"
       r="98.153" />
  </defs>
  <sodipodi:namedview
     pagecolor="#ffffff"
     bordercolor="#666666"
     borderopacity="1"
     objecttolerance="10"
     gridtolerance="10"
     guidetolerance="10"
     inkscape:pageopacity="0"
     inkscape:pageshadow="2"
     inkscape:window-width="1920"
     inkscape:window-height="1017"
     id="namedview338"
     showgrid="false"
     fit-margin-top="0"
     fit-margin-left="0"
     fit-margin-right="0"
     fit-margin-bottom="0"
     inkscape:zoom="2.5809397"
     inkscape:cx="82.204705"
     inkscape:cy="110.54834"
     inkscape:window-x="-8"
     inkscape:window-y="-8"
     inkscape:window-maximized="1"
     inkscape:current-layer="svg2" />
  <title
     id="title4">Wikitracks Vinyl</title>
  <g
     id="g176"
     transform="translate(-100.47575,-5.821)">
    <path
       style="fill:#333333"
       inkscape:connector-curvature="0"
       id="path178"
       d="M 276.63,37.709 C 257.356,18.436 231.729,7.821 204.473,7.821 c -27.258,0 -52.884,10.615 -72.158,29.89 -39.788,39.786 -39.788,104.525 0,144.314 19.274,19.274 44.9,29.889 72.158,29.889 27.256,0 52.883,-10.614 72.157,-29.889 19.245,-19.244 29.845,-44.871 29.845,-72.158 0,-27.288 -10.6,-52.914 -29.845,-72.158 z m -72.157,75.127 c -1.639,0 -2.968,-1.328 -2.968,-2.968 0,-1.639 1.329,-2.968 2.968,-2.968 1.64,0 2.969,1.329 2.969,2.968 -0.001,1.64 -1.33,2.968 -2.969,2.968 z" />
    <path
       inkscape:connector-curvature="0"
       id="path180"
       d="m 204.473,9.821 c 26.723,0 51.846,10.407 70.743,29.303 39.011,39.008 39.011,102.478 0,141.487 -18.897,18.896 -44.021,29.303 -70.743,29.303 -26.725,0 -51.848,-10.406 -70.744,-29.303 -39.008,-39.01 -39.008,-102.479 0,-141.486 18.896,-18.896 44.019,-29.304 70.744,-29.304 m 0,-4 c -27.791,0 -53.919,10.823 -73.572,30.475 -40.567,40.566 -40.567,106.575 0,147.144 19.651,19.651 45.779,30.475 73.572,30.475 27.791,0 53.92,-10.822 73.571,-30.475 19.623,-19.623 30.429,-45.752 30.429,-73.572 0,-27.822 -10.806,-53.95 -30.429,-73.572 C 258.391,16.644 232.264,5.821 204.473,5.821 l 0,0 z" />
  </g>
  <path
     inkscape:connector-curvature="0"
     style="fill:url(#radialGradient3405)"
     id="path187"
     d="m 175.23525,33.337 c -39.053,-39.053 -102.369,-39.053 -141.421,0 l 141.421,141.421 c 39.053,-39.054 39.053,-102.369 0,-141.421 z" />
  <path
     inkscape:connector-curvature="0"
     style="fill:url(#radialGradient3402)"
     id="path194"
     d="m 33.81225,174.759 c -39.052,-39.053 -39.051,-102.37 0.002,-141.422 l 141.421,141.421 c -39.053,39.053 -102.369,39.053 -141.423,10e-4 z" />
  <circle
     style="fill:none;stroke:#000000;stroke-width:0.5"
     sodipodi:ry="88.917999"
     sodipodi:rx="88.917999"
     sodipodi:cy="110.132"
     sodipodi:cx="205"
     id="circle196"
     r="88.917999"
     cy="110.132"
     cx="205"
     transform="translate(-100.47575,-5.821)" />
  <circle
     style="fill:none;stroke:#000000;stroke-width:0.5"
     sodipodi:ry="80.228996"
     sodipodi:rx="80.228996"
     sodipodi:cy="110.132"
     sodipodi:cx="205"
     id="circle198"
     r="80.228996"
     cy="110.132"
     cx="205"
     transform="translate(-100.47575,-5.821)" />
  <circle
     style="fill:none;stroke:#000000;stroke-width:0.5"
     sodipodi:ry="65.844002"
     sodipodi:rx="65.844002"
     sodipodi:cy="110.132"
     sodipodi:cx="204.99899"
     id="circle200"
     r="65.844002"
     cy="110.132"
     cx="204.99899"
     transform="translate(-100.47575,-5.821)" />
  <circle
     style="fill:none;stroke:#000000;stroke-width:0.5"
     sodipodi:ry="55.240002"
     sodipodi:rx="55.240002"
     sodipodi:cy="110.132"
     sodipodi:cx="205"
     id="circle202"
     r="55.240002"
     cy="110.132"
     cx="205"
     transform="translate(-100.47575,-5.821)" />
  <path
     inkscape:connector-curvature="0"
     id="path204"
     d="m 104.52425,56.987 c -26.137,0 -47.324,21.188 -47.324,47.324 0,26.137 21.188,47.324 47.324,47.324 26.136,0 47.324,-21.188 47.324,-47.324 0,-26.136 -21.187,-47.324 -47.324,-47.324 z m -0.527,50.028 c -1.639,0 -2.968,-1.328 -2.968,-2.968 0,-1.639 1.329,-2.968 2.968,-2.968 1.64,0 2.969,1.329 2.969,2.968 -0.001,1.64 -1.33,2.968 -2.969,2.968 z" />
  <path
     inkscape:connector-curvature="0"
     style="fill:url(#linearGradient3394)"
     id="path213"
     d="m 62.00425,13.694 c -9.493,4.462 -18.299,10.45 -26.12,17.836 l -4.143,4.144 c -7.471,7.916 -13.404,16.762 -17.798,26.155 l 133.096,133.102 c 9.491,-4.461 18.299,-10.445 26.117,-17.829 l 4.158,-4.157 c 7.468,-7.914 13.396,-16.758 17.791,-26.146 L 62.00425,13.694 z m 41.993,93.321 c -1.639,0 -2.968,-1.328 -2.968,-2.968 0,-1.639 1.329,-2.968 2.968,-2.968 1.64,0 2.969,1.329 2.969,2.968 -0.001,1.64 -1.33,2.968 -2.969,2.968 z" />
  <path
     inkscape:connector-curvature="0"
     style="fill:url(#radialGradient3391);stroke:#000000;stroke-width:0.5"
     id="path220"
     d="m 104.52425,66.518 c -20.873,0 -37.793,16.921 -37.793,37.793 0,20.872 16.92,37.793 37.793,37.793 20.873,0 37.793,-16.921 37.793,-37.793 0,-20.872 -16.92,-37.793 -37.793,-37.793 z m -0.527,40.497 c -1.639,0 -2.968,-1.328 -2.968,-2.968 0,-1.639 1.329,-2.968 2.968,-2.968 1.64,0 2.969,1.329 2.969,2.968 -0.001,1.64 -1.33,2.968 -2.969,2.968 z" />
  <circle
     style="fill:none;stroke:#46923f;stroke-width:0.5;stroke-opacity:1"
     sodipodi:ry="34.014"
     sodipodi:rx="34.014"
     sodipodi:cy="110.132"
     sodipodi:cx="205"
     id="circle334"
     r="34.014"
     cy="110.132"
     cx="205"
     transform="translate(-100.47575,-5.821)" />
  <path
     style="fill:#1c952a;fill-opacity:1;stroke:#46923f;stroke-width:0.5;stroke-opacity:1"
     inkscape:connector-curvature="0"
     id="path336"
     d="m 103.99525,93.875 c -5.617,0 -10.172,4.554 -10.172,10.172 0,5.618 4.555,10.172 10.172,10.172 5.618,0 10.172,-4.554 10.172,-10.172 0,-5.618 -4.554,-10.172 -10.172,-10.172 z m 0.002,13.14 c -1.639,0 -2.968,-1.328 -2.968,-2.968 0,-1.639 1.329,-2.968 2.968,-2.968 1.64,0 2.969,1.329 2.969,2.968 -0.001,1.64 -1.33,2.968 -2.969,2.968 z" />
</svg>
